<?xml version="1.0" encoding="UTF-8"?>
<svg id="Layer_1" data-name="Layer 1" xmlns="http://www.w3.org/2000/svg" viewBox="0 0 32 32">
  <defs>
    <style>
      .cls-1 {
        fill: #fff;
      }
    </style>
  </defs>
  <rect class="cls-1" width="32" height="32" rx="4.1" ry="4.1"/>
  <path d="m13.38,25.8c.38-.04.77-.07,1.15-.12,1.54-.18,3.08-.33,4.61-.55.41-.06.51.06.56.41.19,1.23.39,2.45.6,3.67.06.33-.12.42-.4.45-1.89.2-3.78.48-5.68.58-1.54.08-3.1.02-4.64-.1-1.08-.09-2.07-.53-2.92-1.25-1.43-1.23-1.6-3.25-.29-4.63.59-.62,1.29-1.17,2.04-1.59,2.79-1.54,5.84-2.41,8.9-3.21.34-.09.71-.1,1.06-.16.24-.04.48-.12.72-.18,0-.05,0-.1,0-.15-.24-.06-.47-.16-.71-.18-1.65-.14-3.3-.21-4.94-.4-1.84-.22-3.66-.52-5.48-.83-.34-.06-.66-.27-.97-.45-1.73-1.07-1.88-3.26-.32-4.58.99-.83,2.1-1.46,3.34-1.82,2.04-.6,4.09-1.17,6.14-1.74,1.07-.3,2.04-.82,3.06-1.49-1.75-.92-3.7-1.03-5.4-1.98.07-.15.13-.31.21-.44.64-1.05,1.29-2.09,1.92-3.14.13-.21.23-.28.48-.19.52.19,1.08.31,1.6.5,1.28.49,2.64.86,3.82,1.53,2.63,1.48,2.97,4.5.81,6.63-1.29,1.28-2.87,2.13-4.59,2.68-.77.25-1.56.46-2.38.79.23.08.46.2.7.22.68.06,1.37.02,2.04.11,1.26.17,2.54.31,3.76.63.7.18,1.38.61,1.95,1.07,1.75,1.41,1.7,4.22-.05,5.71-1.07.91-2.3,1.47-3.67,1.81-2.15.52-4.27,1.13-6.4,1.73-.25.07-.46.31-.69.47.02.06.04.12.06.18Z"/>
</svg>